<svg id="Layer_1" data-name="Layer 1" xmlns="http://www.w3.org/2000/svg" viewBox="0 0 333.55 333.55"><defs><style>.cls-1{fill:#231f20;}</style></defs><title>dark-star</title><path class="cls-1" d="M288.85,113.52l-40.51-6.73-12.85-2.13a27.18,27.18,0,0,1-19.67-14.29l-24.92-48a27.18,27.18,0,0,0-48.25,0l-24.93,48a27.18,27.18,0,0,1-19.67,14.29l-12.84,2.13-40.52,6.73c-21.72,3.61-30.36,30.21-14.91,45.9l28.5,28.93,9.46,9.6a27.19,27.19,0,0,1,7.51,23.13l-8,53.49a26.86,26.86,0,0,0,1,12.39,27.22,27.22,0,0,0,38.07,16l48.38-24.19a27.17,27.17,0,0,1,24.31,0l48.38,24.19c15.71,7.86,33.26-1,38.07-16a27.13,27.13,0,0,0,1-12.39l-8.06-53.49A27.2,27.2,0,0,1,265.81,198l9.45-9.6,28.5-28.93C319.22,143.73,310.58,117.13,288.85,113.52Z"/></svg>