<svg id="Layer_1" data-name="Layer 1" xmlns="http://www.w3.org/2000/svg" viewBox="0 0 333.55 333.55"><defs><style>.cls-1{fill:#13141f;}.cls-2{fill:#00aeef;}</style></defs><title>favicon</title><rect class="cls-1" width="333.55" height="333.55"/><path class="cls-2" d="M309.11,164.68a34.69,34.69,0,0,0-19-58.56l-41.71-6.93-11.65-1.93a19.8,19.8,0,0,1-14.24-10.35l-24.92-48a34.68,34.68,0,0,0-61.57,0l-24.92,48A19.82,19.82,0,0,1,96.82,97.26L85.18,99.19l-41.72,6.93a34.69,34.69,0,0,0-19,58.56l38,38.53A19.82,19.82,0,0,1,67.84,220l-7.37,48.92h0s0,0,0,.08a34.28,34.28,0,0,0-.77,5.29c-.64,8.43.58,24.79,17.42,34.59a34.1,34.1,0,0,0,32.49.78L158,285.44a20.09,20.09,0,0,1,17.61,0L224,309.63a34,34,0,0,0,28.83,1A35.39,35.39,0,0,0,264.14,303a22.77,22.77,0,0,0,3.28-3.39h0c6.93-8.77,6.79-21.27,6.07-28a.13.13,0,0,0,0-.06c-.27-2.57-.63-4.3-.7-4.66a.31.31,0,0,0,0-.07L265.71,220a19.79,19.79,0,0,1,5.44-16.75ZM124.38,93.82l24.92-48a19.68,19.68,0,0,1,34.94,0l24.93,48a34.86,34.86,0,0,0,23.58,18l-21.95,22,5.3,5.3a16.36,16.36,0,0,1,4.84,11.72,16.94,16.94,0,0,1-16.76,16.76h-.08a16.32,16.32,0,0,1-7.74-1.93,16.6,16.6,0,0,1-3.9-2.91l-5.3-5.3-20.39,20.38-10.4-10.4a31.28,31.28,0,0,0,4.55-16.47,31.93,31.93,0,0,0-31.68-31.68,30.31,30.31,0,0,0-4.38.26c-.6.08-1.2.19-1.79.3l-.34.06a31.09,31.09,0,0,0-10,3.93l-12-12A34.9,34.9,0,0,0,124.38,93.82ZM75.64,268.88l7-46.69a34.83,34.83,0,0,0-9.59-29.5l-38-38.54a19.69,19.69,0,0,1,10.8-33.23l36.71-6.1,29.51,29.5,5.3-5.3a16.3,16.3,0,0,1,11.73-4.83,16.94,16.94,0,0,1,16.75,16.75,16.35,16.35,0,0,1-4.83,11.72L135.78,168l20.39,20.38-10.41,10.41a30.83,30.83,0,0,0-16.47-4.56,31.57,31.57,0,0,0-18.1,5.8l-.07.05c-.7.5-1.39,1-2.05,1.58l-.2.17c-.65.56-1.29,1.14-1.91,1.75a31.75,31.75,0,0,0-4.79,38.79ZM247,296.82a19.26,19.26,0,0,1-16.31-.6L182.29,272a34.71,34.71,0,0,0-31,0l-48.38,24.19a19.26,19.26,0,0,1-16.31.6,20,20,0,0,1-9.47-8.19L122.75,243l-5.31-5.3A16.72,16.72,0,0,1,141.09,214l5.3,5.3L166.77,199l10.42,10.41a31.82,31.82,0,0,0,27.12,48.14A31,31,0,0,0,220.78,253l35.67,35.67A20.05,20.05,0,0,1,247,296.82Zm13.49-104.13a34.82,34.82,0,0,0-9.58,29.5l7,46.69-36.5-36.5-5.31,5.3a16.35,16.35,0,0,1-11.63,4.84h-.09A16.78,16.78,0,0,1,192.46,214l5.3-5.31-20.38-20.38L187.79,178a31.26,31.26,0,0,0,16.3,4.55h.17a31.58,31.58,0,0,0,22.32-9.35c.38-.38.74-.76,1.1-1.15a31.57,31.57,0,0,0,8.26-21.18,31.17,31.17,0,0,0-4.56-16.47l19.53-19.53,36.71,6.1a19.68,19.68,0,0,1,10.8,33.23Z"/></svg>